<?xml version="1.0" encoding="iso-8859-1"?>
<!-- Uploaded to: SVG Repo, www.svgrepo.com, Generator: SVG Repo Mixer Tools -->
<svg fill="#000000" height="800px" width="800px" version="1.1" id="Layer_1" xmlns="http://www.w3.org/2000/svg" xmlns:xlink="http://www.w3.org/1999/xlink" 
	 viewBox="0 0 512 512" xml:space="preserve">
<g>
	<g>
		<path d="M512,133.224V91.429h-83.592v135.837h-26.122V128H0v256h57.469v31.347h141.061V384h20.898v31.347h88.816V384h86.204h7.837
			h26.122v36.571h41.796v-73.143h31.347v-78.367h-31.347v-26.122h31.347v-78.367h-31.347v-31.347H512z M182.857,399.673H73.143V384
			h109.714V399.673z M292.571,399.673h-57.469V384h57.469V399.673z M386.612,368.327H15.673V143.673h370.939V368.327z
			 M428.408,368.327h-26.122V242.939h26.122V368.327z M485.878,284.735v47.02h-15.673v-47.02H485.878z M485.878,180.245v47.02
			h-15.673v-47.02H485.878z M454.531,117.551v287.347h-10.449V107.102h52.245v10.449H454.531z"/>
	</g>
</g>
<g>
	<g>
		<path d="M216.816,222.041v-15.673h-19.381c-2.713-9.552-10.25-17.09-19.803-19.803v-19.381h-15.674v18.286h-12.191v-18.286
			h-15.673v18.286h-12.191v-18.286h-15.674v18.286h-12.19v-18.286H78.367v19.381c-9.552,2.713-17.09,10.25-19.803,19.803H39.184
			v15.673h18.286v12.191H39.184v15.673h18.286v12.191H39.184v15.673h18.286v12.19H39.184v15.673h19.381
			c2.713,9.552,10.25,17.09,19.803,19.803v19.381h15.673v-18.286h12.19v18.286h15.673v-18.286h12.191v18.286h15.673v-18.286h12.191
			v18.286h15.674v-19.381c9.552-2.713,17.09-10.25,19.803-19.803h19.381v-15.673h-18.286v-12.191h18.286v-15.673h-18.286v-12.191
			h18.286v-15.674h-18.286v-12.19H216.816z M182.857,297.796c0,7.203-5.859,13.061-13.061,13.061H86.204
			c-7.203,0-13.061-5.859-13.061-13.061v-83.592c0-7.203,5.859-13.061,13.061-13.061h83.592c7.203,0,13.061,5.859,13.061,13.061
			V297.796z"/>
	</g>
</g>
<g>
	<g>
		<path d="M243.984,185.469v43.886h101.355v-43.886H243.984z M329.665,213.682h-70.008v-12.539h70.008V213.682z"/>
	</g>
</g>
<g>
	<g>
		<path d="M243.984,248.163v43.886h101.355v-43.886H243.984z M329.665,276.375h-70.008v-12.539h70.008V276.375z"/>
	</g>
</g>
<g>
	<g>
		<circle cx="159.347" cy="224.653" r="10.449"/>
	</g>
</g>
</svg>