<?xml version="1.0" encoding="iso-8859-1"?>
<!-- Uploaded to: SVG Repo, www.svgrepo.com, Generator: SVG Repo Mixer Tools -->
<svg fill="#000000" version="1.1" id="Layer_1" xmlns="http://www.w3.org/2000/svg" xmlns:xlink="http://www.w3.org/1999/xlink" 
	 viewBox="0 0 512 512" xml:space="preserve">
<g>
	<g>
		<g>
			<path d="M490.667,64h-64V42.667c0-11.782-9.551-21.333-21.333-21.333c-11.782,0-21.333,9.551-21.333,21.333V64h-21.333V42.667
				c0-11.782-9.551-21.333-21.333-21.333c-11.782,0-21.333,9.551-21.333,21.333V64h-21.333V42.667
				c0-11.782-9.551-21.333-21.333-21.333c-11.782,0-21.333,9.551-21.333,21.333V64H21.333C9.551,64,0,73.551,0,85.333v384
				c0,11.782,9.551,21.333,21.333,21.333h469.333c11.782,0,21.333-9.551,21.333-21.333v-384C512,73.551,502.449,64,490.667,64z
				 M469.333,448H42.667V106.667h42.667v106.667c0,11.782,9.551,21.333,21.333,21.333c11.782,0,21.333-9.551,21.333-21.333V106.667
				h42.667V256c0,11.782,9.551,21.333,21.333,21.333s21.333-9.551,21.333-21.333V106.667h256V448z"/>
			<path d="M277.333,149.333c-11.782,0-21.333,9.551-21.333,21.333v128c0,11.782,9.551,21.333,21.333,21.333h128
				c11.782,0,21.333-9.551,21.333-21.333v-128c0-11.782-9.551-21.333-21.333-21.333H277.333z M384,277.333h-85.333V192H384V277.333z
				"/>
			<rect x="85.333" y="362.667" width="42.667" height="42.667"/>
			<rect x="170.667" y="320" width="42.667" height="42.667"/>
			<path d="M384,362.667h-85.333c-11.782,0-21.333,9.551-21.333,21.333s9.551,21.333,21.333,21.333H384
				c11.782,0,21.333-9.551,21.333-21.333S395.782,362.667,384,362.667z"/>
		</g>
	</g>
</g>
</svg>