<?xml version="1.0" encoding="iso-8859-1"?>
<!-- Uploaded to: SVG Repo, www.svgrepo.com, Generator: SVG Repo Mixer Tools -->
<svg fill="#000000" height="800px" width="800px" version="1.1" id="Layer_1" xmlns="http://www.w3.org/2000/svg" xmlns:xlink="http://www.w3.org/1999/xlink" 
	 viewBox="0 0 512 512" xml:space="preserve">
<g>
	<g>
		<g>
			<path d="M491.427,206.292l-82.867-82.867c-8-8-18.849-12.492-30.166-12.492H133.606c-11.317,0-22.166,4.492-30.166,12.492
				l-82.867,82.867C7.389,219.476,0,237.338,0,256s7.389,36.524,20.573,49.708c7.617,7.617,17.08,17.08,37.386,37.388
				c22.643,22.644,36.397,36.398,45.509,45.506c7.994,7.994,18.816,12.465,30.139,12.465h244.787
				c11.317,0,22.166-4.492,30.166-12.492l82.867-82.867C504.611,292.524,512,274.662,512,256S504.611,219.476,491.427,206.292z
				 M479.359,293.64l-82.867,82.867c-4.799,4.799-11.306,7.493-18.098,7.493H133.606c-6.803,0-13.282-2.677-18.073-7.468
				c-9.112-9.107-22.865-22.861-45.5-45.498c-20.312-20.314-29.775-29.777-37.392-37.395c-9.981-9.981-15.574-23.501-15.574-37.64
				c0-14.139,5.593-27.658,15.574-37.64l82.867-82.867c4.799-4.799,11.306-7.493,18.098-7.493h244.787
				c6.792,0,13.3,2.694,18.098,7.493l82.867,82.867c9.981,9.981,15.574,23.501,15.574,37.64
				C494.933,270.139,489.341,283.658,479.359,293.64z"/>
			<path d="M51.2,238.933c-9.421,0-17.067,7.646-17.067,17.067s7.646,17.067,17.067,17.067c9.421,0,17.067-7.646,17.067-17.067
				S60.621,238.933,51.2,238.933z"/>
			<path d="M460.8,238.933c-9.421,0-17.067,7.646-17.067,17.067s7.646,17.067,17.067,17.067c9.421,0,17.067-7.646,17.067-17.067
				S470.221,238.933,460.8,238.933z"/>
			<path d="M375.467,162.135H136.533c-4.713,0-8.533,3.82-8.533,8.533v170.667c0,4.713,3.82,8.533,8.533,8.533h238.933
				c4.713,0,8.533-3.821,8.533-8.533V170.668C384,165.956,380.18,162.135,375.467,162.135z M366.933,332.802H145.067v-153.6h221.867
				V332.802z"/>
			<path d="M179.2,264.533c4.713,0,8.533-3.82,8.533-8.533v-51.2c0-4.713-3.82-8.533-8.533-8.533s-8.533,3.82-8.533,8.533V256
				C170.667,260.713,174.487,264.533,179.2,264.533z"/>
			<path d="M256,315.733c4.713,0,8.533-3.82,8.533-8.533V256c0-4.713-3.82-8.533-8.533-8.533s-8.533,3.82-8.533,8.533v51.2
				C247.467,311.913,251.287,315.733,256,315.733z"/>
			<path d="M332.8,264.533c4.713,0,8.533-3.82,8.533-8.533v-51.2c0-4.713-3.821-8.533-8.533-8.533c-4.713,0-8.533,3.82-8.533,8.533
				V256C324.267,260.713,328.087,264.533,332.8,264.533z"/>
		</g>
	</g>
</g>
</svg>