<?xml version="1.0" encoding="UTF-8"?>
<svg id="Layer_1" xmlns="http://www.w3.org/2000/svg" version="1.1" xmlns:xlink="http://www.w3.org/1999/xlink" viewBox="0 0 800 800">
  <!-- Generator: Adobe Illustrator 29.2.0, SVG Export Plug-In . SVG Version: 2.1.0 Build 108)  -->
  <defs>
    <style>
      .st0 {
        fill: #6b7280;
        fill-rule: evenodd;
      }
    </style>
  </defs>
  <g id="Page-1">
    <g id="Dribbble-Light-Preview">
      <g id="icons">
        <path id="profile_x5F_round-_x5B__x23_1342_x5D_" class="st0" d="M662.5,720H137.5c-28.3,0-49.1-27.9-38.5-53.5,49.4-118.6,165.6-186.5,300.9-186.5s251.5,67.9,301,186.5c10.7,25.6-10.2,53.5-38.5,53.5M236.7,240c0-88.2,73.3-160,163.3-160s163.3,71.8,163.3,160-73.3,160-163.3,160-163.3-71.8-163.3-160M798.2,705.4c-29.7-134.4-122.5-233.5-244.7-278.5,64.8-51.1,102.5-133.7,88.6-224.1C626,97.9,536.9,13.9,429.4,1.7,280.9-15.2,155,98,155,240s35.8,143,91.5,186.9C124.3,471.9,31.5,571.1,1.8,705.4c-10.8,48.8,29.4,94.6,80.4,94.6h635.7c51,0,91.2-45.7,80.4-94.6"/>
      </g>
    </g>
  </g>
</svg>