<?xml version="1.0" encoding="UTF-8"?>
<svg id="Layer_1" data-name="Layer 1" xmlns="http://www.w3.org/2000/svg" viewBox="0 0 353.15 69">
  <defs>
    <style>
      .cls-1 {
        fill: #fff;
      }

      .cls-2 {
        fill: #f39e23;
      }
    </style>
  </defs>
  <circle class="cls-2" cx="34.5" cy="34.5" r="34.5"/>
  <g>
    <path d="M89.52,53.65l-10.09-30.04,7.18-.06,6.73,21.43-1.25-.11,7.3-16.76h4.22l7.47,16.76-1.48.17,6.78-21.43h7.18l-10.15,30.04h-5.02l-7.69-18.01,1.08.11-7.3,17.9h-4.96Z"/>
    <path d="M141.62,54.22c-3,0-5.68-.67-8.04-2.02-2.36-1.35-4.22-3.2-5.59-5.56-1.37-2.36-2.05-5.03-2.05-8.04s.68-5.68,2.05-8.04c1.37-2.36,3.23-4.21,5.59-5.56,2.36-1.35,5.03-2.02,8.04-2.02s5.62.68,7.98,2.02c2.36,1.35,4.21,3.2,5.56,5.56,1.35,2.36,2.02,5.04,2.02,8.04s-.67,5.68-2.02,8.04c-1.35,2.36-3.2,4.21-5.56,5.56-2.36,1.35-5.02,2.02-7.98,2.02ZM141.62,48.01c1.63,0,3.09-.42,4.36-1.25,1.27-.83,2.28-1.96,3.02-3.36.74-1.41,1.09-3,1.05-4.79.04-1.82-.31-3.44-1.05-4.85-.74-1.41-1.75-2.52-3.02-3.33-1.27-.82-2.73-1.23-4.36-1.23s-3.11.41-4.42,1.23c-1.31.82-2.33,1.94-3.05,3.36-.72,1.42-1.08,3.03-1.08,4.82s.36,3.38,1.08,4.79c.72,1.41,1.74,2.53,3.05,3.36,1.31.84,2.78,1.25,4.42,1.25Z"/>
    <path d="M177.19,54.22c-3,0-5.68-.67-8.04-2.02-2.36-1.35-4.22-3.2-5.59-5.56-1.37-2.36-2.05-5.03-2.05-8.04s.68-5.68,2.05-8.04c1.37-2.36,3.23-4.21,5.59-5.56,2.36-1.35,5.03-2.02,8.04-2.02s5.62.68,7.98,2.02c2.36,1.35,4.21,3.2,5.56,5.56,1.35,2.36,2.02,5.04,2.02,8.04s-.68,5.68-2.02,8.04c-1.35,2.36-3.2,4.21-5.56,5.56-2.36,1.35-5.02,2.02-7.98,2.02ZM177.19,48.01c1.63,0,3.09-.42,4.36-1.25,1.27-.83,2.28-1.96,3.02-3.36.74-1.41,1.09-3,1.05-4.79.04-1.82-.31-3.44-1.05-4.85-.74-1.41-1.75-2.52-3.02-3.33-1.27-.82-2.73-1.23-4.36-1.23s-3.11.41-4.42,1.23c-1.31.82-2.33,1.94-3.05,3.36-.72,1.42-1.08,3.03-1.08,4.82s.36,3.38,1.08,4.79c.72,1.41,1.74,2.53,3.05,3.36,1.31.84,2.78,1.25,4.42,1.25Z"/>
    <path d="M196.34,30.11v-6.5h19.49v6.5h-19.49ZM202.27,53.65V15.98h7.01v37.68h-7.01Z"/>
    <path class="cls-2" d="M228.26,53.65l-10.09-30.04,7.18-.06,6.73,21.43-1.25-.11,7.3-16.76h4.22l7.47,16.76-1.48.17,6.78-21.43h7.18l-10.15,30.04h-5.02l-7.7-18.01,1.08.11-7.3,17.9h-4.96Z"/>
    <path class="cls-2" d="M277.96,54.22c-2.47,0-4.71-.68-6.73-2.05-2.01-1.37-3.63-3.23-4.84-5.59-1.22-2.36-1.82-5.03-1.82-8.04s.61-5.68,1.82-8.04c1.22-2.36,2.87-4.2,4.96-5.53,2.09-1.33,4.45-2,7.07-2,1.52,0,2.91.22,4.16.66,1.25.44,2.36,1.05,3.31,1.85.95.8,1.74,1.71,2.37,2.74.63,1.03,1.05,2.13,1.28,3.31l-1.54-.4v-7.52h7.07v30.04h-7.12v-7.18l1.65-.28c-.27,1.03-.75,2.02-1.45,2.99s-1.58,1.82-2.62,2.56c-1.04.74-2.2,1.34-3.48,1.8-1.27.46-2.63.68-4.08.68ZM279.9,48.01c1.63,0,3.08-.4,4.33-1.2,1.25-.8,2.23-1.91,2.94-3.33s1.05-3.07,1.05-4.93-.35-3.44-1.05-4.84c-.7-1.41-1.68-2.51-2.94-3.31-1.25-.8-2.7-1.2-4.33-1.2s-3.07.4-4.3,1.2c-1.23.8-2.19,1.9-2.88,3.31-.68,1.41-1.03,3.02-1.03,4.84s.34,3.51,1.03,4.93c.68,1.42,1.64,2.54,2.88,3.33,1.23.8,2.67,1.2,4.3,1.2Z"/>
    <path class="cls-2" d="M303.21,53.65v-30.04h6.9l.11,9.58-.97-2.17c.42-1.52,1.14-2.89,2.17-4.1,1.03-1.22,2.21-2.17,3.56-2.88,1.35-.7,2.76-1.05,4.25-1.05.65,0,1.26.06,1.85.17.59.11,1.07.25,1.45.4l-1.88,7.7c-.42-.23-.93-.42-1.54-.57-.61-.15-1.22-.23-1.82-.23-.95,0-1.85.18-2.71.54-.86.36-1.61.87-2.25,1.51-.65.65-1.15,1.4-1.51,2.25-.36.85-.54,1.81-.54,2.88v16.02h-7.07Z"/>
    <path class="cls-2" d="M340.04,54.22c-3.15,0-5.94-.66-8.35-1.99s-4.29-3.14-5.64-5.44c-1.35-2.3-2.02-4.93-2.02-7.89,0-2.36.38-4.5,1.14-6.44.76-1.94,1.81-3.62,3.16-5.04,1.35-1.42,2.96-2.53,4.84-3.31,1.88-.78,3.94-1.17,6.18-1.17,1.98,0,3.82.38,5.53,1.14,1.71.76,3.19,1.8,4.45,3.11s2.21,2.87,2.88,4.67c.66,1.81.98,3.77.94,5.9l-.06,2.45h-24.34l-1.31-4.79h19.78l-.91.97v-1.25c-.11-1.18-.49-2.21-1.14-3.11-.65-.89-1.47-1.6-2.48-2.11-1.01-.51-2.12-.77-3.33-.77-1.86,0-3.43.36-4.7,1.08-1.27.72-2.23,1.76-2.88,3.11-.65,1.35-.97,3.03-.97,5.04s.41,3.63,1.23,5.07c.82,1.44,1.98,2.56,3.48,3.33,1.5.78,3.26,1.17,5.27,1.17,1.41,0,2.7-.23,3.88-.68,1.18-.46,2.45-1.27,3.82-2.45l3.48,4.84c-1.03.95-2.19,1.76-3.5,2.42-1.31.67-2.69,1.19-4.13,1.57-1.44.38-2.87.57-4.28.57Z"/>
  </g>
  <path class="cls-1" d="M22.26,50.35l-10.11-30.11,7.2-.06,6.74,21.49-1.26-.11,7.31-16.8h4.23l7.49,16.8-1.49.17,6.8-21.49h7.2l-10.17,30.11h-5.03l-7.71-18.06,1.09.11-7.31,17.94h-4.97Z"/>
</svg>