<?xml version="1.0" encoding="UTF-8"?>
<svg id="Layer_1" data-name="Layer 1" xmlns="http://www.w3.org/2000/svg" viewBox="0 0 348.93 69">
  <defs>
    <style>
      .cls-1 {
        fill: #231f20;
      }

      .cls-2 {
        fill: #fff;
      }

      .cls-3 {
        fill: #207a8d;
      }
    </style>
  </defs>
  <circle class="cls-3" cx="34.5" cy="34.5" r="34.5"/>
  <path class="cls-2" d="M22.26,50.35l-10.11-30.11,7.2-.06,6.74,21.49-1.26-.11,7.31-16.8h4.23l7.49,16.8-1.49.17,6.8-21.49h7.2l-10.17,30.11h-5.03l-7.71-18.06,1.09.11-7.31,17.94h-4.97Z"/>
  <g>
    <path class="cls-1" d="M86.78,47.22l-6.37-18.97,4.54-.04,4.25,13.54-.79-.07,4.61-10.58h2.66l4.72,10.58-.94.11,4.28-13.54h4.54l-6.41,18.97h-3.17l-4.86-11.38.68.07-4.61,11.3h-3.13Z"/>
    <path class="cls-1" d="M114.21,24.21c-.89,0-1.58-.22-2.07-.67-.49-.44-.74-1.07-.74-1.89,0-.77.25-1.39.76-1.87.5-.48,1.19-.72,2.05-.72.91,0,1.61.22,2.11.67.49.44.74,1.09.74,1.93,0,.74-.25,1.36-.76,1.84-.5.48-1.2.72-2.09.72ZM112.05,47.22v-18.97h4.43v18.97h-4.43Z"/>
    <path class="cls-1" d="M122.09,47.22v-18.97h4.36l.07,6.05-.61-1.37c.26-.96.72-1.82,1.37-2.59s1.4-1.37,2.25-1.82c.85-.44,1.75-.67,2.68-.67.41,0,.8.04,1.17.11.37.07.68.16.92.25l-1.19,4.86c-.26-.14-.59-.26-.97-.36-.38-.1-.77-.14-1.15-.14-.6,0-1.17.11-1.71.34-.54.23-1.01.55-1.42.95s-.73.88-.95,1.42c-.23.54-.34,1.15-.34,1.82v10.12h-4.46Z"/>
    <path class="cls-1" d="M145.35,47.58c-1.99,0-3.75-.42-5.27-1.26-1.52-.84-2.71-1.99-3.56-3.44-.85-1.45-1.28-3.11-1.28-4.99,0-1.49.24-2.84.72-4.07.48-1.22,1.15-2.29,2-3.19.85-.9,1.87-1.6,3.06-2.09,1.19-.49,2.49-.74,3.91-.74,1.25,0,2.41.24,3.49.72,1.08.48,2.02,1.13,2.81,1.96.79.83,1.4,1.81,1.82,2.95.42,1.14.62,2.38.59,3.73l-.04,1.55h-15.37l-.83-3.02h12.49l-.58.61v-.79c-.07-.74-.31-1.4-.72-1.96-.41-.56-.93-1.01-1.57-1.33-.64-.32-1.34-.49-2.11-.49-1.18,0-2.17.23-2.97.68-.8.46-1.41,1.11-1.82,1.96-.41.85-.61,1.91-.61,3.19s.26,2.29.77,3.2,1.25,1.61,2.2,2.11c.95.49,2.06.74,3.33.74.89,0,1.7-.14,2.45-.43.74-.29,1.55-.8,2.41-1.55l2.2,3.06c-.65.6-1.39,1.11-2.21,1.53s-1.7.75-2.61.99c-.91.24-1.81.36-2.7.36Z"/>
    <path class="cls-1" d="M165.19,47.58c-1.68,0-3.19-.43-4.52-1.28s-2.39-2.02-3.17-3.49c-.78-1.48-1.17-3.17-1.17-5.09s.38-3.59,1.15-5.08c.77-1.49,1.82-2.66,3.15-3.51,1.33-.85,2.84-1.28,4.52-1.28.91,0,1.79.14,2.65.43.85.29,1.61.68,2.29,1.17.67.49,1.21,1.04,1.6,1.64.4.6.62,1.22.67,1.87l-1.19.14v-12.53h4.43v26.64h-4.28l-.11-4.46.86.07c-.02.6-.23,1.18-.63,1.73s-.91,1.06-1.53,1.51c-.62.46-1.35.82-2.18,1.1-.83.28-1.67.41-2.54.41ZM166.05,43.83c1.03,0,1.94-.26,2.74-.79.79-.53,1.41-1.25,1.85-2.16.44-.91.67-1.97.67-3.17s-.22-2.23-.67-3.15c-.44-.92-1.06-1.64-1.85-2.16-.79-.52-1.7-.77-2.74-.77s-1.94.26-2.74.77c-.79.52-1.41,1.24-1.85,2.16-.44.92-.67,1.97-.67,3.15s.22,2.26.67,3.17c.44.91,1.06,1.63,1.85,2.16.79.53,1.7.79,2.74.79Z"/>
    <path class="cls-3" d="M185.09,47.22l-6.37-18.97,4.54-.04,4.25,13.54-.79-.07,4.61-10.58h2.66l4.72,10.58-.94.11,4.28-13.54h4.54l-6.41,18.97h-3.17l-4.86-11.38.68.07-4.61,11.3h-3.13Z"/>
    <path class="cls-3" d="M218,47.58c-1.9,0-3.59-.43-5.08-1.28-1.49-.85-2.66-2.02-3.53-3.51-.86-1.49-1.3-3.18-1.3-5.08s.43-3.59,1.3-5.08c.86-1.49,2.04-2.66,3.53-3.51,1.49-.85,3.18-1.28,5.08-1.28s3.55.43,5.04,1.28c1.49.85,2.66,2.02,3.51,3.51.85,1.49,1.28,3.18,1.28,5.08s-.43,3.59-1.28,5.08c-.85,1.49-2.02,2.66-3.51,3.51s-3.17,1.28-5.04,1.28ZM218,43.65c1.03,0,1.95-.26,2.75-.79.8-.53,1.44-1.24,1.91-2.12.47-.89.69-1.9.67-3.02.02-1.15-.2-2.17-.67-3.06-.47-.89-1.1-1.59-1.91-2.11-.8-.52-1.72-.77-2.75-.77s-1.96.26-2.79.77c-.83.52-1.47,1.22-1.93,2.12s-.68,1.91-.68,3.04.23,2.14.68,3.02c.46.89,1.1,1.6,1.93,2.12.83.53,1.76.79,2.79.79Z"/>
    <path class="cls-3" d="M231.78,47.22v-18.97h4.36l.07,6.05-.61-1.37c.26-.96.72-1.82,1.37-2.59.65-.77,1.4-1.37,2.25-1.82.85-.44,1.75-.67,2.68-.67.41,0,.8.04,1.17.11.37.07.68.16.92.25l-1.19,4.86c-.26-.14-.59-.26-.97-.36-.38-.1-.77-.14-1.15-.14-.6,0-1.17.11-1.71.34-.54.23-1.01.55-1.42.95-.41.41-.73.88-.95,1.42-.23.54-.34,1.15-.34,1.82v10.12h-4.46Z"/>
    <path class="cls-3" d="M246.94,47.22v-26.64h4.43v26.64h-4.43ZM251.08,41.42l-.86-4.14,9-9.04h5.9l-14.04,13.18ZM259.76,47.22l-6.98-8.46,3.13-2.66,9.32,11.12h-5.47Z"/>
    <path class="cls-3" d="M274.3,47.58c-1.68,0-3.19-.28-4.52-.85s-2.42-1.37-3.26-2.43l2.88-2.48c.72.82,1.52,1.4,2.41,1.76.89.36,1.82.54,2.81.54.41,0,.77-.05,1.1-.14.32-.1.61-.24.85-.43.24-.19.43-.41.56-.67s.2-.53.2-.85c0-.58-.22-1.03-.65-1.37-.24-.17-.62-.35-1.13-.54-.52-.19-1.18-.38-2-.58-1.3-.34-2.38-.73-3.24-1.17-.86-.44-1.54-.94-2.02-1.49-.41-.46-.71-.97-.92-1.55-.2-.58-.31-1.2-.31-1.87,0-.84.19-1.6.56-2.29s.88-1.28,1.53-1.78c.65-.5,1.4-.89,2.27-1.15.86-.26,1.76-.4,2.7-.4s1.89.12,2.79.36c.9.24,1.74.58,2.52,1.03.78.44,1.45.98,2,1.6l-2.45,2.7c-.46-.43-.95-.82-1.49-1.15-.54-.34-1.09-.61-1.64-.81-.55-.2-1.07-.31-1.55-.31s-.86.04-1.22.13-.66.21-.9.38-.43.38-.56.63-.2.55-.2.88c.02.29.1.56.23.81.13.25.32.46.56.63.26.17.66.36,1.19.58.53.22,1.21.42,2.05.61,1.18.31,2.16.66,2.95,1.04s1.42.83,1.87,1.33c.46.43.78.94.97,1.51.19.58.29,1.21.29,1.91,0,1.13-.32,2.14-.95,3.02-.64.89-1.5,1.58-2.59,2.09-1.09.5-2.32.76-3.69.76Z"/>
    <path class="cls-3" d="M285.42,47.22v-26.64h4.39v11.56l-.83.43c.24-.86.71-1.65,1.4-2.36s1.52-1.28,2.48-1.71c.96-.43,1.94-.65,2.95-.65,1.44,0,2.65.29,3.62.86.97.58,1.7,1.44,2.2,2.59.49,1.15.74,2.59.74,4.32v11.59h-4.43v-11.27c0-.96-.13-1.76-.4-2.39-.26-.64-.67-1.1-1.22-1.4-.55-.3-1.22-.44-2.02-.41-.65,0-1.24.1-1.78.31-.54.2-1.01.49-1.4.86-.4.37-.71.8-.94,1.28-.23.48-.34,1.01-.34,1.58v11.45h-4.43Z"/>
    <path class="cls-3" d="M316.02,47.58c-1.9,0-3.59-.43-5.08-1.28-1.49-.85-2.66-2.02-3.53-3.51-.86-1.49-1.3-3.18-1.3-5.08s.43-3.59,1.3-5.08c.86-1.49,2.04-2.66,3.53-3.51,1.49-.85,3.18-1.28,5.08-1.28s3.55.43,5.04,1.28c1.49.85,2.66,2.02,3.51,3.51.85,1.49,1.28,3.18,1.28,5.08s-.43,3.59-1.28,5.08c-.85,1.49-2.02,2.66-3.51,3.51s-3.17,1.28-5.04,1.28ZM316.02,43.65c1.03,0,1.95-.26,2.75-.79.8-.53,1.44-1.24,1.91-2.12.47-.89.69-1.9.67-3.02.02-1.15-.2-2.17-.67-3.06-.47-.89-1.1-1.59-1.91-2.11-.8-.52-1.72-.77-2.75-.77s-1.96.26-2.79.77c-.83.52-1.47,1.22-1.93,2.12s-.68,1.91-.68,3.04.23,2.14.68,3.02c.46.89,1.1,1.6,1.93,2.12.83.53,1.76.79,2.79.79Z"/>
    <path class="cls-3" d="M329.81,55.14v-26.89h4.36l.07,4.32-.76-.32c.14-.74.55-1.45,1.22-2.11.67-.66,1.49-1.19,2.47-1.6.97-.41,1.99-.61,3.04-.61,1.68,0,3.17.42,4.48,1.26,1.31.84,2.34,1.99,3.1,3.46.76,1.46,1.13,3.16,1.13,5.08s-.38,3.58-1.13,5.06-1.79,2.64-3.1,3.49c-1.31.85-2.78,1.28-4.41,1.28-1.1,0-2.17-.22-3.19-.65-1.02-.43-1.88-1-2.59-1.69-.71-.7-1.15-1.43-1.31-2.2l1.08-.5v12.64h-4.46ZM339.39,43.62c1.01,0,1.91-.25,2.7-.76s1.41-1.2,1.85-2.09c.44-.89.67-1.91.67-3.06s-.22-2.17-.65-3.04c-.43-.88-1.04-1.57-1.84-2.07-.79-.5-1.71-.76-2.74-.76s-1.97.25-2.75.74c-.78.49-1.4,1.18-1.85,2.07-.46.89-.68,1.91-.68,3.06s.23,2.17.68,3.06c.46.89,1.07,1.58,1.85,2.09.78.5,1.7.76,2.75.76Z"/>
  </g>
</svg>